<?xml version='1.0' encoding='utf-8'?>
<svg xmlns:xlink="http://www.w3.org/1999/xlink" xmlns="http://www.w3.org/2000/svg" viewBox="0 0 3000 3000" height="3000" width="3000" id="svg2" version="1.1"><metadata id="metadata8"/><defs id="defs6"><linearGradient id="linearGradient1330"><stop style="stop-color:#fdbb85;stop-opacity:1" offset="0" id="stop1326"/><stop style="stop-color:#fdfce6;stop-opacity:1" offset="1" id="stop1328"/></linearGradient><linearGradient id="i"><stop id="stop1064" offset="0" stop-color="#80c93b"/><stop id="stop1066" offset="1" stop-color="#2b4900"/></linearGradient><linearGradient xlink:href="#i" gradientUnits="userSpaceOnUse" y2="1180.4" y1="740.35999" x2="570.04999" x1="677.16998" id="h"/><linearGradient xlink:href="#i" gradientUnits="userSpaceOnUse" y2="1180.4" y1="723.64001" x2="555.88" x1="547.54999" id="g"/><linearGradient xlink:href="#i" gradientUnits="userSpaceOnUse" y2="1180.4" y1="590.64001" x2="454.01999" x1="548.04999" id="f"/><linearGradient xlink:href="#i" gradientUnits="userSpaceOnUse" y2="1160.7" y1="905.40997" x2="95.773003" x1="101.61" id="l"/><linearGradient xlink:href="#i" gradientUnits="userSpaceOnUse" y2="1160.7" y1="836.85999" x2="129.17999" x1="117.24" id="k"/><linearGradient xlink:href="#i" gradientUnits="userSpaceOnUse" y2="1180.4" y1="860.51001" x2="203.3" x1="210.61" id="b"/><linearGradient xlink:href="#i" gradientUnits="userSpaceOnUse" y2="1180.4" y1="774.64001" x2="245.14999" x1="230.17999" id="a"/><linearGradient xlink:href="#i" gradientUnits="userSpaceOnUse" y2="1172.4" y1="719.64001" x2="882" x1="852.59998" id="e"/><linearGradient xlink:href="#i" gradientUnits="userSpaceOnUse" y2="1180.4" y1="794.64001" x2="777.91998" x1="776.96002" id="d"/><linearGradient xlink:href="#i" gradientUnits="userSpaceOnUse" y2="1180.4" y1="828.64001" x2="838.04999" x1="865.71002" id="c"/><linearGradient xlink:href="#i" gradientUnits="userSpaceOnUse" y2="1474.1" y1="1154.2" x2="789.29999" x1="796.60999" id="j"/><linearGradient xlink:href="#linearGradient1330" id="linearGradient1332" x1="0" y1="250" x2="500" y2="250" gradientUnits="userSpaceOnUse" gradientTransform="translate(-496.28625,3.6593832)"/><filter id="Adobe_OpacityMaskFilter" filterUnits="userSpaceOnUse" x="781.79999" y="540.29999" width="33.400002" height="38.5"><feColorMatrix type="matrix" values="1 0 0 0 0 0 1 0 0 0 0 0 1 0 0 0 0 0 1 0" id="feColorMatrix1075"/></filter><radialGradient id="rect910_1_" cx="-705.03998" cy="1782.7194" r="13.7735" gradientTransform="rotate(180,-578.03455,1353.5777)" gradientUnits="userSpaceOnUse"><stop offset="0" style="stop-color:#FFFBCC" id="stop851"/><stop offset="6.016793e-02" style="stop-color:#FFF2BB" id="stop853"/><stop offset="0.1797" style="stop-color:#FDDB8E" id="stop855"/><stop offset="0.346" style="stop-color:#FBB646" id="stop857"/><stop offset="0.3708" style="stop-color:#FBB03B" id="stop859"/><stop offset="0.6854" style="stop-color:#F7931E" id="stop861"/><stop offset="1" style="stop-color:#EF6A41" id="stop863"/></radialGradient><radialGradient id="SVGID_1_" cx="480.27301" cy="590.04138" r="8.1139002" gradientUnits="userSpaceOnUse"><stop offset="0" style="stop-color:#FFFBCC" id="stop951"/><stop offset="6.016793e-02" style="stop-color:#FFF2BB" id="stop953"/><stop offset="0.1797" style="stop-color:#FDDB8E" id="stop955"/><stop offset="0.346" style="stop-color:#FBB646" id="stop957"/><stop offset="0.3708" style="stop-color:#FBB03B" id="stop959"/><stop offset="0.6854" style="stop-color:#F7931E" id="stop961"/><stop offset="1" style="stop-color:#EF6A41" id="stop963"/></radialGradient><mask maskUnits="userSpaceOnUse" x="781.8" y="540.3" width="33.4" height="38.5" id="SVGID_2_"><g style="filter:url(#Adobe_OpacityMaskFilter-2)" id="g1082"><path style="fill:#ffffff" d="m 764.9,536.6 v 64.8 h 59 v -64.8 z m 38.4,32.4 c 0.2,-0.7 0.6,-1.4 0.9,-1.7 0.1,-0.6 -0.4,0.2 0,0 0.2,-0.7 0.5,-1.3 0.9,-1.9 -0.3,-0.5 -0.4,-1.1 0.1,-1.7 2.1,-3 5.7,-5.2 9.5,-5.2 1.5,0 2,1.6 1.5,2.6 1.6,0.2 0.8,2.6 -1.1,3.3 -2,-0.1 -5.7,1 -7,5.3 -0.1,0.1 0.1,0.6 -0.1,1.1 -1.8,0.3 -3.5,1 -4.6,0.7 -0.4,-0.2 -0.3,-1.9 -0.1,-2.5 z" id="path1080"/></g></mask><filter id="Adobe_OpacityMaskFilter-2" filterUnits="userSpaceOnUse" x="781.79999" y="540.29999" width="33.400002" height="38.5"><feColorMatrix type="matrix" values="1 0 0 0 0 0 1 0 0 0 0 0 1 0 0 0 0 0 1 0" id="feColorMatrix1075-3"/></filter><radialGradient id="SVGID_3_" cx="798.46057" cy="560.71838" r="17.425699" gradientUnits="userSpaceOnUse"><stop offset="0" style="stop-color:#FFFBCC" id="stop1085"/><stop offset="6.016793e-02" style="stop-color:#FFF2BB" id="stop1087"/><stop offset="0.1797" style="stop-color:#FDDB8E" id="stop1089"/><stop offset="0.346" style="stop-color:#FBB646" id="stop1091"/><stop offset="0.3708" style="stop-color:#FBB03B" id="stop1093"/><stop offset="0.6854" style="stop-color:#F7931E" id="stop1095"/><stop offset="1" style="stop-color:#EF6A41" id="stop1097"/></radialGradient><radialGradient id="SVGID_1_-5" cx="436.16919" cy="439.29669" r="24.4049" gradientUnits="userSpaceOnUse"><stop offset="0" style="stop-color:#FFFBCC" id="stop1421"/><stop offset="6.016793e-02" style="stop-color:#FFF2BB" id="stop1423"/><stop offset="0.1797" style="stop-color:#FDDB8E" id="stop1425"/><stop offset="0.346" style="stop-color:#FBB646" id="stop1427"/><stop offset="0.3708" style="stop-color:#FBB03B" id="stop1429"/><stop offset="0.6854" style="stop-color:#F7931E" id="stop1431"/><stop offset="1" style="stop-color:#EF6A41" id="stop1433"/></radialGradient><filter id="filter1311" filterUnits="userSpaceOnUse" x="781.79999" y="540.29999" width="33.400002" height="38.5"><feColorMatrix type="matrix" values="1 0 0 0 0 0 1 0 0 0 0 0 1 0 0 0 0 0 1 0" id="feColorMatrix1309"/></filter><filter id="filter2563" filterUnits="userSpaceOnUse" x="781.79999" y="540.29999" width="33.400002" height="38.5"><feColorMatrix type="matrix" values="1 0 0 0 0 0 1 0 0 0 0 0 1 0 0 0 0 0 1 0" id="feColorMatrix2561"/></filter></defs><g id="g185" transform="matrix(5.914101,0,0,5.914101,21.474771,21.474735)"><circle transform="rotate(-89.155071)" r="250" cy="253.65938" cx="-246.28625" id="path211" style="opacity:1;fill:url(#linearGradient1332);fill-opacity:1;fill-rule:evenodd;stroke-width:0.625"/><g transform="matrix(-0.67440909,0,0,0.67440909,440.57455,7.584449)" id="g1438"><g id="g1353"><g id="g1343"><path style="fill:#4d4d4d" d="m 297,412.2 c -1.9,-0.5 -3,-2.5 -2.5,-4.4 v 0 c 0.5,-1.9 2.5,-3 4.4,-2.5 l 75.7,18.8 c 1.9,0.5 2.4,4.5 1.9,6.4 v 0 c -0.5,1.9 -2.5,3 -4.4,2.5 l -21.4,-8.2 z" id="path1341"/></g><g id="g1347"><path style="fill:#666666" d="m 302.7,391.7 c -1.9,-0.5 -3.8,0.6 -4.4,2.5 v 0 c -0.5,1.9 0.6,3.8 2.5,4.4 l 74.6,22.9 c 1.9,0.5 4.4,-2.6 4.9,-4.5 v 0 c 0.5,-1.9 -0.6,-3.8 -2.5,-4.4 l -22.6,-4.1 z" id="path1345"/></g><path style="fill:#333333" d="M 399.5,431.6 394,430 c -1.8,2.6 -5.5,3.9 -9.3,2.8 -4.5,-1.3 -3.3,-4.2 -2.2,-8 1.1,-3.8 1.5,-7 6,-5.7 3.8,1.1 6.4,4.1 6.5,7.2 l 5.5,1.5 c 0.9,-6.8 -3.3,-13.5 -10.1,-15.4 -6.6,-1.8 -13.4,1.4 -16.3,7.3 v 0 l -8.6,-2.4 -1.4,5.1 8.6,2.4 c -0.7,6.5 3,12.6 10.2,14.7 6.8,2 13.9,-1.6 16.6,-7.9 z m -24.1,-8.7 c 0.4,-1.4 1.8,-2.2 3.2,-1.8 1.4,0.4 2.2,1.8 1.8,3.2 -0.4,1.4 -1.8,2.2 -3.2,1.8 -1.3,-0.3 -2.2,-1.8 -1.8,-3.2 z" id="path1349"/><path style="fill:#8c6239" d="m 377,426.6 c -1.6,-0.5 -2.6,-2.1 -2.1,-3.8 0.5,-1.6 2.1,-2.6 3.8,-2.1 1.6,0.5 2.6,2.1 2.1,3.8 -0.5,1.6 -2.2,2.5 -3.8,2.1 z" id="path1351"/></g><polygon style="fill:#603813" points="168.5,478.6 202.7,390 219.6,503.1 225.1,574.4 192.1,574.4 177.5,507.2 " id="polygon1355"/><path style="fill:#efbc8f" d="m 308.7,409.2 c -4.4,6.3 -12.2,8.5 -17.5,4.9 l -6.4,-4.5 c -5.2,-3.6 -5.9,-11.7 -1.5,-18.1 v 0 c 4.4,-6.3 12.2,-8.5 17.4,-4.9 l 6.4,4.5 c 5.4,3.6 6,11.7 1.6,18.1 z" id="path1357"/><polygon style="fill:#006837" points="216,323.1 251.7,289.1 264.1,360 298.7,384.2 282,408.9 237.5,370.9 " id="polygon1359"/><path style="stroke-width:0.93574744" d="m 131.81605,581.7 c -1.33475,8.5 -5.76396,17 0,25.5 0,0 38.26474,1.7 49.21004,0 7.57892,-0.5 4.78186,-13.3 2.5393,-13.3 l -19.70153,-6.2 -3.2398,-6 z" id="path1361"/><path d="m 195.7,574.4 c -2.63245,7.98006 -2.90373,14.90167 0,20.4 0,0 34.9,1.4 44.9,0 8.04582,0.12582 5.00064,-10.33436 2.3,-10.6 l -18,-5 -2.9,-4.8 z" id="path1363"/><path style="fill:#8c6239" d="m 164.8,380.8 c 5.8,-30.3 15.6,-61.8 23.7,-85.5 l -0.8,0.4 -23.3,-8.5 c 0,0 -18.4,62.7 -22.3,85 -5.3,30.8 -10.8,125.1 -10.8,125.1 l -5.4,84.5 h 42.3 l 7.5,-84.9 27,-106.8 z" id="path1365"/><path style="fill:#603813" d="m 227.2,250 c -5.6,-2.6 -14.3,-5.1 -17.1,-6.5 -2.8,1.3 -4.2,14.2 -7.5,13.5 -1.5,-0.3 -3,-0.6 -4.6,-0.9 -0.3,-0.1 -0.6,-0.1 -0.8,-0.1 -1.8,-0.2 -3.7,-0.3 -5.6,-0.1 0.4,0.1 -0.3,0.4 -0.6,0.5 -0.1,0.2 -0.1,0.4 -0.3,0.7 0.4,-0.9 0.3,-0.5 -0.3,1.3 -3.1,10.3 -10.9,14 -17.8,9.5 -0.6,1.3 -1.3,2.7 -1.9,4 l -6.4,15.3 c 0,0 14.8,15.9 23.3,14.9 6.1,-0.7 15,-13 15,-13 0,0 46.8,9 48.8,-3.4 3.6,-23.4 -20.1,-33.8 -24.2,-35.7 z" id="path1371"/><g style="display:inline" id="g1381"><path id="rect1377" d="m 117.80585,92.895407 9.89286,0.252317 L 129.5,167.7 c -4.6473,4.55293 -9.50943,5.68627 -14.8,0 z" style="fill:#804735" transform="matrix(0.2968,-0.9549,0.9549,0.2968,-38.5249,208.2206)"/><path id="polygon1379" d="m 82.1,145 -22,-6.8 15.2,-48.8 22,6.8 z" style="display:inline;fill:#333333"/></g><path style="fill:#efbc8f" d="m 136.5,152.4 c -7.4,1.9 -15.3,-3.9 -17.5,-12.9 v 0 c -2.3,-9 1.9,-17.8 9.4,-19.6 l 2.1,-0.5 c 7.4,-1.9 15.3,3.9 17.5,12.9 v 0 c 2.2,9 -2,17.7 -9.4,19.6 z" id="path1383"/><path style="fill:#04a34f" d="m 212.6,262.5 c -3.9,25.2 -40.3,6.1 -40.3,6.1 l -34.2,-28.9 -12.5,-86.5 23.8,-7.6 14.4,72.7 46.4,25.3 c -0.1,-0.1 3.4,9.7 2.4,18.9 z" id="path1385"/><g id="g1403"><g id="g1393"><path style="fill:#333333" d="m 569.3,455.3 c -13.1,35.6 -47.2,29.1 -86.5,35.6 v -36.2 z" id="path1389"/><path style="fill:#808080" d="m 482.8,447.2 v 7.6 36.2 c -7.3,1.2 -14.9,2.9 -22.5,5.3 -29.3,9.5 -23.3,29.6 -4.3,44.1 12.4,9.5 37.2,16.5 37.2,16.5 v 27.6 h -45 c 0,0 0,-17.8 -36.3,-17.8 -3.4,0 -6.5,0.2 -9.3,0.5 v -120 z" id="path1391"/></g><path style="fill:#666666" d="m 292.5,479 v -31.8 h 110.1 v 119.9 c -27.3,2.8 -28.8,17.3 -28.8,17.3 h -45.5 v -30.6 c 0,0 21.2,4.7 29.9,-17.8 29.4,-56.5 -65.7,-57 -65.7,-57 z" id="path1395"/><rect x="292.5" y="447.20001" style="fill:#333333" width="190.3" height="7.5999999" id="rect1397"/><path style="fill:#333333" d="m 453.4,566.6 c 0,0 -3.7,-4.5 -11.1,-9.1 -3.7,-2.3 -8.3,-4.5 -13.5,-6.3 -2.6,-0.7 -5.4,-1.7 -8.2,-2.1 -2.9,-0.4 -5.8,-0.9 -8.8,-0.9 -3,-0.1 -5.9,0.1 -8.8,0.5 -2.9,0.1 -5.7,1.2 -8.3,1.9 -2.7,0.5 -5.1,2 -7.4,2.9 -2.4,0.9 -4.3,2.3 -6.1,3.5 -1.8,1.3 -3.5,2.2 -4.8,3.5 -1.3,1.2 -2.4,2.3 -3.3,3.1 -1.8,1.8 -2.7,2.8 -2.7,2.8 0,0 1.3,-0.6 3.6,-1.7 1.1,-0.6 2.4,-1.2 3.9,-2 1.4,-0.9 3.3,-1.3 5.2,-2.2 1.9,-0.8 3.9,-1.7 6.2,-2.3 2.3,-0.5 4.5,-1.5 7,-1.9 2.5,-0.4 5,-1 7.6,-1.1 2.6,-0.3 5.2,-0.5 7.9,-0.3 2.7,-0.1 5.3,0.3 7.9,0.6 2.6,0.3 5.2,0.8 7.6,1.3 2.4,0.7 4.9,1.1 7.1,1.9 2.2,0.7 4.3,1.4 6.3,2.1 3.9,1.4 7.1,2.8 9.3,3.8 2.1,1.3 3.4,2 3.4,2 z" id="path1399"/><path style="fill:#333333" d="M 486.3,465.1 V 472 H 353 v 23 c -2.1,-1.7 -4.4,-3.2 -6.9,-4.5 V 465 h 140.2 z" id="path1401"/></g><g id="g1417"><g id="g1413"><path style="fill:#0071bc" d="m 246.2,285.9 c -11.9,0 -21.9,-2.9 -30.1,-7.8 l -13.5,11 -14.2,6.2 c -8.2,23.7 -17.9,55.3 -23.7,85.6 1.3,1.9 21.2,56.8 37.4,83.8 6.3,7 10.6,6.7 17.2,6.1 -7.1,-101.1 28.8,-160 28.8,-160 3,-8.7 4,-17.3 3.3,-25.3 -1.7,0.3 -3.4,0.4 -5.2,0.4 z" id="path1405"/><polygon style="fill:#0071bc" points="141.3,376.6 142,372.2 165.6,376.5 164.7,380.9 " id="polygon1407"/><path style="fill:#0071bc" d="m 210.5,244 c 0,0 7.2,8 5.6,34.1 l 3.7,2.9 c 0,0 2,-19.6 -3.7,-35.3 z" id="path1409"/><path style="fill:#0071bc" d="m 247.7,285.9 c 0,0 -1.6,-18.1 -10,-29.8 l 3.6,3 c 0,0 6.5,9.1 8.3,26.7 z" id="path1411"/></g><polygon style="fill:#0071bc" points="166.5,281.8 164.7,285.9 186.9,299.5 188.5,295.3 " id="polygon1415"/></g><rect x="384.70001" y="426.70001" style="fill:#fbb03b" width="88.199997" height="4.8000002" id="rect1419"/><radialGradient id="radialGradient1960" cx="436.16919" cy="439.29669" r="24.4049" gradientUnits="userSpaceOnUse"><stop offset="0" style="stop-color:#FFFBCC" id="stop1946"/><stop offset="6.016793e-02" style="stop-color:#FFF2BB" id="stop1948"/><stop offset="0.1797" style="stop-color:#FDDB8E" id="stop1950"/><stop offset="0.346" style="stop-color:#FBB646" id="stop1952"/><stop offset="0.3708" style="stop-color:#FBB03B" id="stop1954"/><stop offset="0.6854" style="stop-color:#F7931E" id="stop1956"/><stop offset="1" style="stop-color:#EF6A41" id="stop1958"/></radialGradient><rect x="402.60001" y="431.39999" style="fill:url(#SVGID_1_-5)" width="67.199997" height="15.7" id="rect1436"/><g transform="matrix(-0.08012947,-0.03910337,-0.04171398,0.07511454,332.79358,188.42253)" id="g255" style="display:inline"><g id="g96" transform="matrix(-1,0,0,1,1317.6926,0)"><path style="display:inline;fill:#e5a683;stroke-width:1.32363999" d="m 401.69436,1091.7557 c 47.61067,-43.1425 39.87161,-67.7938 29.45934,-173.36552 -1.28066,-9.25747 -2.04121,-11.17942 -6.30744,-15.93978 C 417.15479,893.86789 400.17775,872.26285 383.017,849.21802 225.8106,118.94224 957.57083,246.40882 988.94948,437.87613 l 0.87263,3.10288 c 7.55057,26.85119 9.14781,44.48878 9.43848,104.21612 l 0.25853,53.2939 c 32.07648,73.31696 29.82438,75.7775 54.57978,96.26248 21.1538,16.96518 27.3697,22.91322 28.118,32.63608 1.4839,33.01501 -11.2511,28.96315 -42.4137,39.1742 -8.5094,14.96645 -5.7375,4.56175 -9.3467,28.96104 0.038,13.3342 0.1793,19.54109 9.8955,27.89046 4.1281,3.54787 10.6686,9.00374 12.0948,11.81928 5.0514,9.97237 4.711,19.3005 -4.8926,30.006 l -8.5338,8.11468 6.1739,9.6847 c 7.1535,22.86293 -4.5006,29.76621 -19.9531,41.24581 0.4164,38.00713 -25.2074,89.43154 -61.16104,90.02234 -92.22681,4.9859 -125.3366,-19.41197 -176.84915,-19.6212 -24.32662,1.32215 -39.22151,17.2507 -41.97776,49.0218 -35.19044,149.2716 -252.62751,103.2462 -343.55889,48.049 z" id="path104"/><path style="display:inline;fill:#ffffff;stroke:none;stroke-width:0.25;stroke-linecap:butt;stroke-linejoin:miter;stroke-opacity:1" d="m 858.24556,572.28312 c -0.48754,-0.15156 -0.35629,-0.54946 0.032,-0.71423 10.12057,-4.29413 52.06456,-21.92404 86.81002,-16.18609 17.90814,12.25581 5.06844,32.34798 -10.52125,27.96837 -0.31348,8.33258 10.52772,13.02644 18.1355,15.1876 -15.77383,15.28567 -76.85734,-8.78931 -94.45627,-26.25565 z" id="path107"/><path style="display:inline;fill:#302b2f;stroke-width:1.33333337" d="M 363.87089,811.08815 C 290.52477,692.02317 203.70975,596.67447 203.41129,466 c 222.15388,-49.57985 347.27803,-15.00236 541.92202,20.55053 0,4.83522 1.16683,12.8715 2.59296,17.8584 9.39447,79.2789 -83.30912,69.04183 -85.84461,210.00382 -9.65721,11.64606 -15.80145,16.03296 -18.87869,13.47908 -1.15593,-0.95935 -1.75425,-2.85576 -1.36755,-4.33454 0.37812,-1.44594 -0.55929,-8.38785 -2.08313,-15.42646 -3.49627,-16.14919 -3.76735,-38.31218 -0.62651,-51.2229 1.21652,-5.00065 4.3109,-13.63514 6.87636,-19.18778 l 4.66451,-10.0957 -0.0264,-24.14556 c -0.042,-38.33901 -2.77683,-51.00242 -13.57008,-62.8337 -11.65928,-12.7806 -36.21839,-22.63512 -56.4035,-22.6323 -10.62951,10e-4 -12.88603,0.44943 -19.75803,3.92215 -9.39555,4.74797 -21.50552,17.26276 -28.07433,29.0128 -6.49034,11.60965 -13.61188,33.65599 -16.96566,52.52096 -3.33932,18.78373 -4.03912,56.96497 -1.37825,75.19787 3.60399,24.69526 14.91541,58.66666 19.53419,58.66666 0.90941,0 5.56308,3.83338 10.34146,8.51863 14.71612,14.42923 30.02691,17.86361 45.63395,10.23621 4.4,-2.15036 9.95,-5.2088 12.33333,-6.79656 5.93305,-3.95253 5.77656,-0.89856 -0.3662,7.14638 -12.83333,16.8073 -34.71304,19.37265 -52.2568,6.12698 -3.87401,-2.92492 -7.03708,-4.54858 -7.02902,-3.60816 9.67502,187.93316 -137.42703,233.79446 -188.57618,193.5991 22.68288,-26.63516 25.09234,-121.09113 9.76576,-141.46776 z m 217.63514,-96.42148 c -3.6075,-7.78371 -3.67758,-17.79208 -0.17271,-24.66667 1.46667,-2.87679 2.66667,-5.69145 2.66667,-6.25483 0,-0.56337 -2.50478,-2.30214 -5.56618,-3.86396 -7.87616,-4.01812 -18.63148,-15.26714 -22.83306,-23.88121 -7.39946,-15.17025 -6.03099,-27.83505 -1.90348,-45.7483 2.15612,-9.35751 13.86459,-24.55637 14.79176,-24.48215 0.6129,0.0491 -7.1911,19.5219 -7.64587,21.89712 -3.23751,16.90897 -1.6812,30.88622 5.01057,45 4.48304,9.45526 18.52654,28.66666 20.9553,28.66666 0.72786,0 2.94358,-0.8368 4.92384,-1.85954 5.22688,-2.69956 20.26711,-3.4488 20.26711,-1.00962 0,0.62195 -2.55,2.27195 -5.66666,3.66667 -12.34765,5.52557 -19.46015,16.00376 -19.76039,29.11116 -0.0516,2.25024 -0.587,5.29133 -1.1899,6.758 -0.95951,2.33412 -1.44299,1.91844 -3.877,-3.33333 z M 618.5909,598.39816 c -6.81398,-14.25135 -15.96681,-27.70201 -23.15761,-34.0316 -6.12325,-5.38991 -14.91955,-6.09467 -20.22985,-6.09467 -1.5098,0 -12.53416,4.1723 -19.88043,33.08912 -0.99,3.89689 -3.55558,-19.59229 5.26932,-34.87172 4.8973,-7.30297 15.32668,-7.15009 19.85004,-7.14293 15.34762,0.0243 28.90897,9.57119 37.03069,26.06876 5.64831,11.47333 10.04395,32.58488 6.78451,32.58488 -0.59165,0 -3.14165,-4.32083 -5.66667,-9.60184 z m 307.40908,7.62957 c -35.24645,-6.74925 -62.08237,-27.21405 -61.35271,-28.53458 13.66222,9.33497 53.94166,29.45312 79.90593,24.73494 -10.43187,-6.63787 -10.63202,-11.35122 -11.2149,-18.56136 16.49338,-2.97081 24.61497,-13.12065 12.3442,-26.85401 l -13.90359,1.61617 c -15.18219,1.7648 -51.15523,8.30004 -63.98011,11.62331 -6.63531,1.71938 -14.53239,4.62572 -14.65834,3.79343 27.07817,-25.89269 84.35038,-32.32279 120.60338,-22.81598 -0.13967,-4.86431 0.9073,-8.90314 -1.00796,-15.02965 5.3527,9.84727 4.92437,13.95981 4.82726,19.09261 0.93388,15.00973 1.0193,36.32822 -12.40872,46.36811 -8.94938,6.37251 -23.32712,8.04955 -39.15444,4.56701 z m -111.16137,-79.6944 c 2.33448,-4.37954 16.87052,-19.22229 23.83084,-24.33365 27.2569,-20.01629 63.05669,-25.34811 95.38281,-14.20577 15.06328,5.19209 41.62052,22.31106 38.87348,25.05812 -0.49902,0.49901 -6.16146,-0.6684 -12.5832,-2.59427 -52.0435,-15.60765 -85.9808,-12.59731 -131.88547,11.69869 -7.6658,4.05728 -14.22577,7.37688 -14.5777,7.37688 -0.35194,0 0.0797,-1.35 0.95924,-3 z" id="path98"/></g><g transform="matrix(-0.77426406,-0.20822766,-0.20632797,0.6930292,1316.8037,160.2219)" style="display:inline" id="g12"><path id="path26" d="m 0,931.17006 c 0,-1.77174 0.36198966,-1.86284 2,-0.50342 1.0999999,0.91292 1.9999999,1.88639 1.9999999,2.16326 0,0.27688 -0.9,0.50341 -1.9999999,0.50341 -1.10000002,0 -2,-0.97347 -2,-2.16325 z M 133.27908,828.80073 C 415.83252,724.99507 451.5906,655.44322 739.36564,752.30424 632.26043,739.28375 531.60069,743.05442 474.91868,751.43437 450.29535,755.07471 440.62204,758.63498 401.33332,778.5175 328.80911,815.21922 175.74189,886.65068 168,887.40651 c -41.39137,-16.03304 -36.65067,-47.747 -34.72092,-58.60578 z" style="display:inline;fill:#c8bab1;stroke-width:1.33333325"/><path id="path24" d="M 127.21247,818.99998 C 112.12547,787.2423 96.357436,736.8778 88.075882,696.87287 178.65485,681.26179 248.46729,674.25318 413.86441,690.29161 c -0.52042,0.84209 1.00335,8.06611 2.32883,14.08971 3.96506,18.01913 4.07274,17.70482 -7.19325,20.9986 -5.31667,1.5544 -17.45831,5.20225 -26.98141,8.10633 -19.6015,5.97749 -19.66527,5.96304 -21.28263,-4.82227 -1.59772,-10.65437 -2.71683,-11.22076 -25.40263,-12.85656 -39.03731,-2.81486 -104.29583,0.23023 -147.92623,6.90252 -22.04229,3.37088 -25.30272,4.27344 -25.85853,7.15824 -0.2483,1.2887 5.9017,18.08587 13.66666,37.32704 7.76496,19.24117 16.04068,38.50286 16.04068,39.59945 0,2.06016 -52.37142,22.544 -56.86182,22.54044 -1.52275,-10e-4 -3.89235,-3.41133 -7.18161,-10.33513 z" style="display:inline;fill:#a49b95;stroke-width:1.33333325"/><path id="path22" d="M 1030.2847,802.57937 C 949.36592,797.71633 850.28655,780.30759 680.66665,741.14973 540.63615,708.82276 473.16892,695.75026 423.99999,691.41782 357.27383,685.53834 307.95014,683.88526 245.71482,685.44261 170.2607,687.33074 139.15798,689.83038 62.309976,700.18234 27.168789,704.9161 13.466588,702.34564 5.5881897,689.54161 1.0172767,682.11293 -0.48411692,673.77526 0.76343441,662.74837 2.1661105,650.35034 2.5277495,650.10932 20.890805,649.33332 l 18.908967,-2.75601 2.044376,-59.1073 C 49.83521,573.77845 65.421322,570.71683 85.048458,566.79137 108.22653,443.33353 145.48797,304.37104 243.64041,188.22146 292.33672,113.1979 368.09848,86.993342 445.72587,75.747638 518.72286,49.206392 601.79687,48.694406 662.51919,48.693473 1000.2814,110.51042 1172.6478,388.93285 1187.3741,623.99998 c 0.4325,11.36667 1.0385,21.92458 1.3468,23.46202 0.373,1.86014 10.7174,9.86958 30.9198,23.94056 29.921,27.71678 79.7818,51.23043 108.1133,81.14964 11.9319,12.58404 7.1039,23.71118 -3.8536,29.2873 -41.3912,21.09606 -176.7636,27.47184 -293.6157,20.73987 z" style="display:inline;fill:#ffc022;stroke-width:1.33333325"/><path id="path20" d="m 364.66666,573.33359 c 52.50357,7.90299 153.88813,19.47199 158.75427,22.07627 2.31408,1.23845 3.50954,5.49235 2.45277,34.28215 -1.21806,33.18421 0.8588,38.20024 -18.03596,30.72459 -41.97523,-16.60739 -103.83276,-22.10993 -181.96048,-25.89326 -29.00735,-1.40469 -123.72829,-0.93333 -136.54393,0.67948 -2.56667,0.323 -11.86667,0.96847 -20.66667,1.43437 -24.55748,1.30016 -59.35595,4.32658 -95.104049,8.27118 -27.935657,3.08253 -32.621333,3.31414 -33.762839,1.66894 -0.833572,-1.2014 1.378956,-40.85397 1.815333,-59.4596 13.324475,-20.70039 39.843539,-15.04299 42.095094,-16.78107 120.117981,2.95247 180.754251,-4.78694 280.956461,2.99695 z" style="display:inline;fill:#cc7e1f;stroke-width:1.33333325"/><path id="path18" d="m 676.42795,714.75538 c -25.04336,-7.16848 -63.24378,-16.51877 -77.7613,-22.04853 -6.23333,-2.37431 -12.46921,-4.71877 -13.8575,-5.20993 -1.3883,-0.49118 -2.26284,-1.15438 -1.94343,-1.47378 2.28556,-2.28557 190.21531,-8.42465 203.75203,-6.26957 9.50161,-27.21333 12.36163,-77.43721 13.35596,-94.35535 3.98121,-67.86476 10.41917,-98.51237 27.845,-125.277 5.15136,-7.91206 4.67932,-14.44015 3.28277,-19.10104 -1.94355,-6.48643 -17.71899,-29.30244 -31.75046,-48.51387 -28.68561,-39.27541 -74.85801,-86.66596 -113.49374,-111.8357 -28.80571,-18.6474 -62.0201,-37.04465 -93.82484,-49.30016 -48.38248,-18.00733 -76.87873,-26.47681 -119.01623,-33.45908 -43.51535,-7.21057 -85.80817,-9.23845 -131.04867,-7.89625 -45.77399,1.35802 -43.90969,6.37369 -50.85143,15.31821 -11.00877,14.18498 -25.60652,40.70053 -32.31978,58.70614 -2.62251,7.03379 -9.63698,30.30679 -11.27751,37.41715 -4.34236,18.82052 -6.65752,56.48876 -4.82837,78.55896 1.10165,13.29245 5.87564,43.13706 7.99556,49.98441 0.68112,2.2 2.52264,8.2 4.09228,13.33333 3.23509,10.58002 13.58693,35.98832 17.92645,44 10.31564,19.04481 22.25093,37.62224 28.27837,44.01561 1.39083,1.47527 3.0886,3.67128 3.77283,4.88004 0.68423,1.20876 6.48885,8.16886 12.89916,15.46687 l 11.65511,13.26913 17.01155,1.58154 c 9.35636,0.86984 22.11156,2.17161 28.3449,2.89281 6.23333,0.72121 13.73333,1.57385 16.66666,1.89477 2.93334,0.32091 7.73334,0.8993 10.66667,1.2853 2.93333,0.38598 12.84857,1.57165 22.03388,2.6348 9.18529,1.06314 17.58529,2.23202 18.66667,2.59748 1.08136,0.36546 5.26612,0.97444 9.29945,1.35326 12.65668,1.18876 40.5826,4.81272 42.52881,5.51898 1.02417,0.37165 8.47839,1.54504 16.56492,2.6075 8.08653,1.06247 15.34857,2.57715 16.13787,3.36594 2.18874,2.1874 2.57069,74.81827 0.40898,77.77458 -1.53113,2.09396 -2.2528,2.01791 -10.12446,-1.06699 -4.66171,-1.8269 -9.3099,-4.01385 -10.32931,-4.85989 -1.47152,-1.22125 -1.85769,-7.20604 -1.87389,-29.04165 -0.0107,-15.12688 -0.46123,-28.1751 -1,-28.99604 -0.77711,-1.18411 -36.34335,-3.5734 -50.97959,-3.42475 -1.81069,0.0184 -29.85897,-2.90982 -41.33333,-4.31516 -2.56667,-0.31436 -15.76667,-2.08922 -29.33333,-3.94416 -13.56667,-1.85493 -28.26667,-3.72928 -32.66667,-4.1652 -4.4,-0.43592 -9.5,-1.03836 -11.33333,-1.33877 -7.32627,-1.20047 -43.24925,-2.51005 -64,-2.33313 -24.53163,0.20914 -40.34755,1.44753 -74.66666,5.8464 -32.11183,4.11594 -88.10313,4.46942 -105.333336,0.665 -21.559288,-4.7603 -45.292324,-6.37387 -50.75432,-3.4507 -5.465857,2.92524 -2.078953,-8.35114 4.294303,-14.29748 5.857976,-5.46558 14.412239,-8.35537 24.826353,-8.38681 11.303467,-0.0341 11.32755,-0.0629 12.843395,-15.36261 2.448427,-24.71239 15.081795,-88.24253 23.597605,-118.66667 24.2708,-86.71142 58.99597,-158.28035 100.46201,-207.05323 5.16853,-6.0793 11.40092,-13.5793 13.84977,-16.66667 12.36736,-15.59214 27.84743,-21.15827 39.66539,-23.01151 32.69967,-5.12781 107.48295,-6.82806 148.87085,-4.29556 79.67625,0.62948 140.71577,19.3901 214.36969,49.98213 110.60154,67.59722 157.29546,118.00774 218.22288,191.83744 3.35895,2.78767 27.85833,-26.87221 42.82496,-48.16597 4.62343,-6.57797 8.36653,-12.41344 8.31803,-12.96768 -0.0485,-0.55425 1.62553,-4.45425 3.72009,-8.66667 4.40261,-8.8542 12.67068,-29.36447 14.77791,-36.65894 0.79442,-2.75 2.02897,-6.95 2.74345,-9.33333 0.71447,-2.38334 2.514,-11.4402 3.99895,-20.12638 2.928,-17.12726 2.63265,-35.80697 -0.66799,-42.24753 -8.82841,-22.30423 11.71735,-19.35357 22.75483,13.43473 6.1336,16.67979 7.5445,54.30539 2.74761,73.27251 -4.14036,16.37113 -7.23856,26.79345 -8.42823,28.3524 -0.6915,0.90618 -2.06472,3.7476 -3.05157,6.31426 -0.98684,2.56667 -3.4874,8.223 -5.5568,12.56962 -2.06939,4.34662 -8.60381,13.2507 -9.38114,14.42649 -6.99117,10.57485 -27.84616,39.02512 -48.98819,60.79853 -26.40729,27.19595 -30.62397,31.54127 -37.87726,41.82335 -12.4999,17.7195 -13.16921,29.25045 -13.07397,49.04868 4.87801,50.13751 -3.86079,97.83058 -15.50905,138.32512 0,1.83591 14.18279,5.19574 39.06709,6.45889 7.33334,0.37224 14.23334,1.00322 15.33334,1.40218 4.94094,1.79204 123.22207,2.88236 143.99995,1.3274 26.4062,-1.97616 30.4077,-2.31149 50.6667,-4.24594 4.7667,-0.45515 18.2667,-2.63848 30,-4.85186 11.7333,-2.21337 25.8333,-4.79605 31.3333,-5.73926 5.5,-0.94323 13.3959,-2.6596 17.5465,-3.81415 22.3552,-6.21856 35.5625,-10.58595 42.2816,-13.9816 7.6814,-3.88205 11.9329,-7.88986 14.2147,-11.27986 269.165,197.25544 -255.44152,124.33959 -512.28145,67.15447 z" style="display:inline;fill:#eca900;fill-opacity:1;stroke-width:1.33333325"/><path id="path16" d="m 672.97336,713.97661 c -5.90196,-2.56575 -3.53266,-2.41037 9.02662,0.59196 54.31985,12.98531 137.30932,27.92082 192.66666,34.67398 117.921,3.77616 483.87916,55.19063 314.04276,-101.64164 29.3304,21.08962 132.4779,90.62013 142.5879,109.7663 3.5558,7.39348 0.4,12.05114 -1.0989,13.79682 -13.17,13.00443 -41.9058,19.77754 -186.8058,24.29342 -146.43158,3.61772 -302.97584,-27.56662 -470.41924,-81.48084 z m 117.35995,-30.94792 c -5.75669,-0.60217 -5.94592,-1.38109 -3.003,-12.36204 3.48203,-12.99253 5.81412,-34.35795 8.65944,-79.33333 3.25718,-51.48573 7.22223,-79.98943 13.9053,-99.96148 4.52657,-13.52747 11.27398,-28.09509 16.69226,-36.03852 3.69279,-5.41378 3.45266,-8.94618 -1.23528,-18.17144 -18.62076,-36.64324 -60.38037,-87.3943 -98.5625,-119.78442 C 644.40988,247.49433 545.38611,208.08937 423.22356,196.5781 c -25.49201,-2.40209 -98.56727,-2.88374 -115.22357,-0.75946 -7.56994,0.54913 -44.74643,2.3747 -76.41596,6.91565 0,-3.13843 8.00898,-12.35367 15.58586,-16.04581 7.03308,-3.42716 11.02508,-4.25911 28.8301,-6.00831 46.18251,-4.53707 114.78767,-4.84085 162,-0.71733 111.46706,9.7355 208.50654,41.97877 281.99999,93.70001 38.52055,27.10896 67.25885,55.79962 95.59969,95.44123 8.67232,12.13036 27.3759,43.52738 34.70096,58.25127 2.36536,4.75453 5.06612,8.6446 6.0017,8.6446 0.93556,0 5.30026,-3.37861 9.69934,-7.50803 4.39907,-4.12941 11.59441,-10.27941 15.98967,-13.66666 8.25868,-6.36462 34.84416,-22.82527 36.86498,-22.82527 2.1395,0 1.15102,2.70273 -4.22468,11.55131 -8.99572,14.80725 -25.36688,34.60604 -49.1915,59.49072 -43.28852,45.21458 -44.89689,49.11263 -43.58173,105.62463 1.54558,66.41359 -3.7286,105.02081 -15.47059,113.24523 -2.89164,2.02538 -5.58051,2.21242 -16.05451,1.11681 z M 516.66665,665.85762 c -4.4,-1.78126 -8.75,-4.24261 -9.66666,-5.46966 -1.20786,-1.61683 -1.66667,-9.83192 -1.66667,-29.8419 v -27.61089 l -17,-0.77319 c -31.97474,-1.45424 -68.99332,-4.80814 -97.66666,-8.84866 -47.7511,-6.72885 -70.61289,-8.49568 -110,-8.50111 -20.02783,-0.003 -41.61984,0.70284 -48.66667,1.59035 -77.21003,9.72423 -107.78478,10.4994 -141.333326,3.58327 -15.280159,-3.15004 -33.575487,-4.66504 -41.346883,-3.42384 -4.025879,0.64298 -7.605966,0.8934 -7.955746,0.55646 -0.34978,-0.33694 0.85022,-3.42642 2.666667,-6.86554 4.918338,-9.31198 13.681642,-13.60923 30.455937,-14.93467 8.352647,-0.65999 15.412048,-0.48508 20.180025,0.5 4.566292,0.9434 22.677836,1.50101 47.999996,1.47781 32.4296,-0.0297 44.85272,-0.56985 61.33333,-2.66666 17.18831,-2.18686 27.62339,-2.5856 62,-2.36919 22.73334,0.14312 45.53334,0.84549 50.66667,1.56083 5.13333,0.71533 13.83333,1.92725 19.33333,2.69313 5.5,0.76589 25,2.95811 43.33333,4.87161 34.22655,3.57231 82.6353,9.84852 122.66667,15.90376 16.73773,2.53179 23.10261,4.01168 24.33333,5.65771 1.23601,1.65311 1.66667,11.42321 1.66667,37.81098 0,26.84166 -0.4094,35.92042 -1.66667,36.95999 -1.18235,0.97763 -3.99143,0.43695 -9.66667,-1.86059 z M 931.1392,252.48941 C 916.2366,233.97611 911.71927,229.1369 896.39423,215.26881 846.02842,169.6912 785.58133,136.26057 713.36453,114.04313 640.14716,91.517844 559.65939,80.024707 474.99999,80.006194 c -17.32267,-0.0038 -29.26024,-3.503516 -29.26024,-4.290654 0,-2.829882 42.31136,-12.871477 71.66135,-18.184198 33.62914,-6.087305 56.59254,-8.625847 100.94844,-8.599923 22.73334,0.01333 42.96843,-0.287364 44.14794,-0.249394 1.1795,0.03797 3.26736,5.211342 5.88586,9.15508 5.37347,8.093044 18.78639,19.539472 37.76579,32.228903 7.07513,4.730359 13.06755,8.600656 13.31647,8.600656 0.24892,0 5.42098,2.902676 11.49348,6.450396 16.74342,9.78196 44.54982,24.09467 69.0409,35.53724 69.57454,32.50618 98.7879,52.3063 121.34953,82.24785 10.32308,13.69975 23.28655,39.57287 20.98219,41.87723 -0.39598,0.39597 -5.43259,-5.13452 -11.1925,-12.28997 z" style="display:inline;fill:#c88e00;fill-opacity:1;stroke-width:1.33333325"/><path id="path14" d="M 831.14055,447.13331 C 817.18004,417.99905 787.66097,377.53967 758.36407,347.38458 697.46291,284.69945 626.75259,242.8188 539.89691,217.98981 452.58016,193.029 360.35488,187.69268 250.55497,201.24795 c -9.35617,1.15506 -17.64922,1.88743 -18.42901,1.62751 -2.87344,-0.95781 4.4134,-7.72333 12.49092,-11.59726 7.10987,-3.40987 11.30335,-4.2774 29.61599,-6.12689 11.73333,-1.18502 38.13333,-2.50203 58.66666,-2.9267 92.11311,-1.90508 173.41545,9.00118 247.33333,33.17836 121.27916,39.66819 206.61519,109.65101 257.45855,211.138 10.35286,20.66505 10.54744,22.16266 3.91107,30.10197 l -3.75344,4.49037 z" style="fill:#9d5c01;fill-opacity:1;stroke-width:1.33333325"/></g></g></g></g></svg>